<svg width="44" height="50" viewBox="0 0 44 50" fill="none" xmlns="http://www.w3.org/2000/svg">
<g filter="url(#filter0_f)">
<path d="M37.5127 37.6331C38.0133 37.0196 37.5621 36.1398 36.7704 36.1268C26.664 35.9604 18.2118 36.1472 7.75821 36.7832C6.96742 36.8314 6.55522 37.7311 7.08318 38.3217C10.7464 42.4201 16.0738 45 22.0039 45C28.2595 45 33.8446 42.1291 37.5127 37.6331Z" stroke="#4C4CFF" stroke-linecap="round" stroke-linejoin="round"/>
<path d="M4.64272 15.0579C4.25238 15.7378 4.82746 16.5294 5.60585 16.436C17.1726 15.048 25.6979 14.6341 37.7882 15.3703C38.5749 15.4182 39.1044 14.5873 38.6676 13.9313C35.0829 8.54757 28.9578 5 22.0039 5C14.5757 5 8.09318 9.04797 4.64272 15.0579Z" stroke="#4C4CFF" stroke-linecap="round" stroke-linejoin="round"/>
</g>
<g filter="url(#filter1_f)">
<path d="M37.5127 37.6331C38.0133 37.0196 37.5621 36.1398 36.7704 36.1268C26.664 35.9604 18.2118 36.1472 7.75821 36.7832C6.96742 36.8314 6.55522 37.7311 7.08318 38.3217C10.7464 42.4201 16.0738 45 22.0039 45C28.2595 45 33.8446 42.1291 37.5127 37.6331Z" stroke="#4C4CFF" stroke-linecap="round" stroke-linejoin="round"/>
<path d="M4.64272 15.0579C4.25238 15.7378 4.82746 16.5294 5.60585 16.436C17.1726 15.048 25.6979 14.6341 37.7882 15.3703C38.5749 15.4182 39.1044 14.5873 38.6676 13.9313C35.0829 8.54757 28.9578 5 22.0039 5C14.5757 5 8.09318 9.04797 4.64272 15.0579Z" stroke="#4C4CFF" stroke-linecap="round" stroke-linejoin="round"/>
</g>
<path d="M37.5127 37.6331C38.0133 37.0196 37.5621 36.1398 36.7704 36.1268C26.664 35.9604 18.2118 36.1472 7.75821 36.7832C6.96742 36.8314 6.55522 37.7311 7.08318 38.3217C10.7464 42.4201 16.0738 45 22.0039 45C28.2595 45 33.8446 42.1291 37.5127 37.6331Z" stroke="#4C4CFF" stroke-linecap="round" stroke-linejoin="round"/>
<path d="M4.64272 15.0579C4.25238 15.7378 4.82746 16.5294 5.60585 16.436C17.1726 15.048 25.6979 14.6341 37.7882 15.3703C38.5749 15.4182 39.1044 14.5873 38.6676 13.9313C35.0829 8.54757 28.9578 5 22.0039 5C14.5757 5 8.09318 9.04797 4.64272 15.0579Z" stroke="#4C4CFF" stroke-linecap="round" stroke-linejoin="round"/>
<path d="M37.5127 37.6331C38.0133 37.0196 37.5621 36.1398 36.7704 36.1268C26.664 35.9604 18.2118 36.1472 7.75821 36.7832C6.96742 36.8314 6.55522 37.7311 7.08318 38.3217C10.7464 42.4201 16.0738 45 22.0039 45C28.2595 45 33.8446 42.1291 37.5127 37.6331Z" stroke="white" stroke-width="0.5" stroke-linecap="round" stroke-linejoin="round"/>
<path d="M4.64272 15.0579C4.25238 15.7378 4.82746 16.5294 5.60585 16.436C17.1726 15.048 25.6979 14.6341 37.7882 15.3703C38.5749 15.4182 39.1044 14.5873 38.6676 13.9313C35.0829 8.54757 28.9578 5 22.0039 5C14.5757 5 8.09318 9.04797 4.64272 15.0579Z" stroke="white" stroke-width="0.5" stroke-linecap="round" stroke-linejoin="round"/>
<g filter="url(#filter2_f)">
<ellipse rx="1" ry="0.75" transform="matrix(0.885492 0.464655 0.464655 -0.885492 15.234 39.9812)" stroke="#4C4CFF"/>
<ellipse cx="30.7076" cy="11.3542" rx="1.5" ry="1" transform="rotate(15 30.7076 11.3542)" stroke="#4C4CFF"/>
<ellipse rx="1" ry="0.75" transform="matrix(0.965926 -0.258819 -0.258819 -0.965926 28.16 39.9833)" stroke="#4C4CFF"/>
<ellipse cx="20.5" cy="12" rx="1.5" ry="1" transform="rotate(180 20.5 12)" stroke="#4C4CFF"/>
<ellipse cx="24.7076" cy="8.35415" rx="1.5" ry="1" transform="rotate(15 24.7076 8.35415)" stroke="#4C4CFF"/>
<ellipse rx="1" ry="0.75" transform="matrix(1 0 0 -1 22 41.75)" stroke="#4C4CFF"/>
<ellipse cx="13.7929" cy="10.5826" rx="1.5" ry="1" transform="rotate(-27.6879 13.7929 10.5826)" stroke="#4C4CFF"/>
</g>
<g filter="url(#filter3_f)">
<ellipse rx="1" ry="0.75" transform="matrix(0.885492 0.464655 0.464655 -0.885492 15.234 39.9812)" stroke="#4C4CFF"/>
<ellipse cx="30.7076" cy="11.3542" rx="1.5" ry="1" transform="rotate(15 30.7076 11.3542)" stroke="#4C4CFF"/>
<ellipse rx="1" ry="0.75" transform="matrix(0.965926 -0.258819 -0.258819 -0.965926 28.16 39.9833)" stroke="#4C4CFF"/>
<ellipse cx="20.5" cy="12" rx="1.5" ry="1" transform="rotate(180 20.5 12)" stroke="#4C4CFF"/>
<ellipse cx="24.7076" cy="8.35415" rx="1.5" ry="1" transform="rotate(15 24.7076 8.35415)" stroke="#4C4CFF"/>
<ellipse rx="1" ry="0.75" transform="matrix(1 0 0 -1 22 41.75)" stroke="#4C4CFF"/>
<ellipse cx="13.7929" cy="10.5826" rx="1.5" ry="1" transform="rotate(-27.6879 13.7929 10.5826)" stroke="#4C4CFF"/>
</g>
<ellipse rx="1" ry="0.75" transform="matrix(0.885492 0.464655 0.464655 -0.885492 15.234 39.9812)" stroke="#4C4CFF"/>
<ellipse cx="30.7076" cy="11.3542" rx="1.5" ry="1" transform="rotate(15 30.7076 11.3542)" stroke="#4C4CFF"/>
<ellipse rx="1" ry="0.75" transform="matrix(0.965926 -0.258819 -0.258819 -0.965926 28.16 39.9833)" stroke="#4C4CFF"/>
<ellipse cx="20.5" cy="12" rx="1.5" ry="1" transform="rotate(180 20.5 12)" stroke="#4C4CFF"/>
<ellipse cx="24.7076" cy="8.35415" rx="1.5" ry="1" transform="rotate(15 24.7076 8.35415)" stroke="#4C4CFF"/>
<ellipse rx="1" ry="0.75" transform="matrix(1 0 0 -1 22 41.75)" stroke="#4C4CFF"/>
<ellipse cx="13.7929" cy="10.5826" rx="1.5" ry="1" transform="rotate(-27.6879 13.7929 10.5826)" stroke="#4C4CFF"/>
<ellipse rx="1" ry="0.75" transform="matrix(0.885492 0.464655 0.464655 -0.885492 15.234 39.9812)" stroke="white" stroke-width="0.5"/>
<ellipse cx="30.7076" cy="11.3542" rx="1.5" ry="1" transform="rotate(15 30.7076 11.3542)" stroke="white" stroke-width="0.5"/>
<ellipse rx="1" ry="0.75" transform="matrix(0.965926 -0.258819 -0.258819 -0.965926 28.16 39.9833)" stroke="white" stroke-width="0.5"/>
<ellipse cx="20.5" cy="12" rx="1.5" ry="1" transform="rotate(180 20.5 12)" stroke="white" stroke-width="0.5"/>
<ellipse cx="24.7076" cy="8.35415" rx="1.5" ry="1" transform="rotate(15 24.7076 8.35415)" stroke="white" stroke-width="0.5"/>
<ellipse rx="1" ry="0.75" transform="matrix(1 0 0 -1 22 41.75)" stroke="white" stroke-width="0.5"/>
<ellipse cx="13.7929" cy="10.5826" rx="1.5" ry="1" transform="rotate(-27.6879 13.7929 10.5826)" stroke="white" stroke-width="0.5"/>
<defs>
<filter id="filter0_f" x="0.012085" y="0.5" width="43.3185" height="49" filterUnits="userSpaceOnUse" color-interpolation-filters="sRGB">
<feFlood flood-opacity="0" result="BackgroundImageFix"/>
<feBlend mode="normal" in="SourceGraphic" in2="BackgroundImageFix" result="shape"/>
<feGaussianBlur stdDeviation="2" result="effect1_foregroundBlur"/>
</filter>
<filter id="filter1_f" x="0.012085" y="0.5" width="43.3185" height="49" filterUnits="userSpaceOnUse" color-interpolation-filters="sRGB">
<feFlood flood-opacity="0" result="BackgroundImageFix"/>
<feBlend mode="normal" in="SourceGraphic" in2="BackgroundImageFix" result="shape"/>
<feGaussianBlur stdDeviation="2" result="effect1_foregroundBlur"/>
</filter>
<filter id="filter2_f" x="7.88513" y="2.81286" width="28.7951" height="44.1871" filterUnits="userSpaceOnUse" color-interpolation-filters="sRGB">
<feFlood flood-opacity="0" result="BackgroundImageFix"/>
<feBlend mode="normal" in="SourceGraphic" in2="BackgroundImageFix" result="shape"/>
<feGaussianBlur stdDeviation="2" result="effect1_foregroundBlur"/>
</filter>
<filter id="filter3_f" x="7.88513" y="2.81286" width="28.7951" height="44.1871" filterUnits="userSpaceOnUse" color-interpolation-filters="sRGB">
<feFlood flood-opacity="0" result="BackgroundImageFix"/>
<feBlend mode="normal" in="SourceGraphic" in2="BackgroundImageFix" result="shape"/>
<feGaussianBlur stdDeviation="2" result="effect1_foregroundBlur"/>
</filter>
</defs>
</svg>

